<svg xmlns="http://www.w3.org/2000/svg" xmlns:xlink="http://www.w3.org/1999/xlink" version="1.1" width="834" height="364" viewBox="0 0 834 364">
<defs>
<clipPath id="clip_0">
<path transform="matrix(1,0,0,-1,0,364)" d="M0 364H834V0H0Z"/>
</clipPath>
</defs>
<g id="layer_1" data-name="Layer 1">
<g clip-path="url(#clip_0)">
<path transform="matrix(1,0,0,-1,398.4182,127.689807)" d="M0 0-17.097 37.597C-18.342 40.335-18.447 43.394-17.392 46.211-16.335 49.026-14.246 51.264-11.509 52.508L14.911 64.523C20.561 67.092 27.252 64.587 29.821 58.933L46.92 21.337 39.835 18.113 22.736 55.711C21.943 57.455 19.872 58.23 18.134 57.437L-8.286 45.422C-9.132 45.038-9.776 44.347-10.102 43.478-10.428 42.609-10.395 41.665-10.012 40.819L7.085 3.222Z" fill="#3d246a"/>
<path transform="matrix(1,0,0,-1,457.5782,260.4124)" d="M0 0C1.067-2.347 3.861-3.395 6.209-2.327 8.556-1.26 9.603 1.534 8.536 3.882L6.225 8.962-2.31 5.081ZM40.978 24.766 43.288 19.685C44.356 17.338 47.15 16.291 49.497 17.358 51.844 18.426 52.891 21.219 51.824 23.567L49.514 28.648Z" fill="#3d246a"/>
<path transform="matrix(1,0,0,-1,518.7639,203.2677)" d="M0 0-5.679 12.489C-6.568 14.446-8.873 15.31-10.833 14.422-12.79 13.532-13.655 11.224-12.764 9.268L-7.085-3.223C-4.648-8.582-7.026-14.925-12.385-17.362L-75.28-45.964C-77.86-47.139-80.758-47.232-83.442-46.226-86.124-45.221-88.246-43.246-89.418-40.669L-92.262-34.394C-92.418-34.694-92.578-35.005-92.731-35.293-94.205-38.061-95.651-40.476-97.091-42.598L-96.507-43.887C-94.472-48.361-90.802-51.781-86.174-53.515-84.053-54.311-81.851-54.706-79.657-54.706-77.065-54.706-74.482-54.152-72.057-53.05L-9.162-24.449C.105-20.234 4.215-9.267 0 0M-134.312 65.638C-133.307 68.32-131.332 70.443-128.75 71.617L-65.855 100.218C-63.273 101.392-60.376 101.484-57.694 100.48-55.012 99.475-52.889 97.5-51.714 94.919L-50.563 92.389C-48.254 93.941-46.095 95.475-44.094 96.965L-44.629 98.141C-46.663 102.616-50.333 106.035-54.961 107.77-59.586 109.503-64.601 109.34-69.078 107.305L-131.973 78.703C-136.448 76.668-139.867 72.999-141.602 68.37-143.337 63.742-143.171 58.728-141.103 54.185L-136.007 43.535H-127.378L-134.05 57.477C-135.224 60.059-135.317 62.957-134.312 65.638M-15.318 20.399C-14.78 20.399-14.233 20.511-13.71 20.748-11.753 21.638-10.888 23.946-11.779 25.902L-31.782 69.89C-33.16 66.189-34.526 62.926-35.863 60.063L-18.864 22.681C-18.211 21.246-16.798 20.399-15.318 20.399" fill="#3d246a"/>
<path transform="matrix(1,0,0,-1,477.4758,128.2116)" d="M0 0C5.787-13.7-10.103-28.404-10.103-28.404-22.471-35.53-40.9-27.922-40.9-27.922-22.891-22.423-9.947-6.679-9.947-6.679Z" fill="#3d246a"/>
<path transform="matrix(1,0,0,-1,492.2237,96.9465)" d="M0 0C0 0-23.454-25.698-59.849-36.015-59.849-36.015-31.621-36.137-23.868-49.64-23.868-49.64-20.332-56.58-27.248-60.696-27.248-60.696-12.426-59.625 0 0" fill="#0d535c"/>
<path transform="matrix(1,0,0,-1,142.5088,152.5474)" d="M0 0C0-.988-.258-2.045-.771-3.172-1.285-4.298-1.986-5.306-2.875-6.195-3.765-7.084-4.822-7.836-6.047-8.448-7.272-9.062-8.577-9.367-9.96-9.367H-25.255V-77.958H-31.895C-34.82-77.958-37.23-77.03-39.127-75.172-41.024-73.315-41.973-70.528-41.973-66.813V-9.367H-65.924V-3.913C-65.924-2.925-65.716-1.888-65.302-.8-64.887 .286-64.255 1.274-63.404 2.164-62.555 3.053-61.507 3.784-60.262 4.357-59.018 4.93-57.545 5.217-55.846 5.217H0Z" fill="#0d535c"/>
<path transform="matrix(1,0,0,-1,188.3945,180.8257)" d="M0 0C-1.226 .474-2.589 .909-4.091 1.304-5.593 1.699-7.391 1.897-9.485 1.897-13.122 1.897-15.908 .83-17.845-1.305-19.781-3.438-20.749-7.016-20.749-12.035V-49.68H-25.255C-28.892-49.68-31.786-48.791-33.939-47.012-36.095-45.234-37.171-42.646-37.171-39.246V-9.13C-37.171-5.89-36.727-2.708-35.837 .415-34.947 3.537-33.535 6.264-31.599 8.596-29.662 10.927-27.152 12.825-24.069 14.287-20.986 15.749-17.291 16.48-12.983 16.48-10.493 16.48-8.379 16.155-6.64 15.502-4.901 14.851-3.508 14.021-2.46 13.013-1.413 12.005-.643 10.858-.148 9.574 .346 8.29 .593 7.034 .593 5.81V0Z" fill="#0d535c"/>
<path transform="matrix(1,0,0,-1,229.4189,221.2573)" d="M0 0C0-3.557-.751-6.087-2.253-7.588-3.756-9.091-6.245-9.841-9.723-9.841-16.047-9.841-20.889-8.103-24.247-4.625-27.607-1.147-29.286 3.913-29.286 10.552V54.837H-24.662C-21.026 54.837-18.181 53.849-16.125 51.873-14.07 49.896-13.043 46.854-13.043 42.744V12.094C-13.043 8.774-12.292 6.511-10.79 5.306-9.288 4.1-6.72 3.498-3.083 3.498H0ZM-11.679 70.548C-11.679 67.939-12.628 65.687-14.524 63.789-16.422 61.892-18.675 60.944-21.283 60.944-23.853 60.944-26.076 61.892-27.952 63.789-29.83 65.687-30.769 67.939-30.769 70.548-30.769 73.116-29.83 75.329-27.952 77.188-26.076 79.045-23.853 79.974-21.283 79.974-18.675 79.974-16.422 79.045-14.524 77.188-12.628 75.329-11.679 73.116-11.679 70.548" fill="#0d535c"/>
<path transform="matrix(1,0,0,-1,284.1973,200.0337)" d="M0 0C0 7.786-1.275 13.417-3.824 16.896-6.373 20.373-10.277 22.113-15.533 22.113-20.078 22.113-23.536 20.354-25.907 16.836-28.279 13.318-29.465 8.714-29.465 3.023-29.465-3.538-27.992-8.596-25.048-12.153-22.104-15.71-18.2-17.489-13.339-17.489-9.388-17.489-6.176-15.888-3.706-12.687-1.236-9.486 0-5.257 0 0M16.777 4.268C16.777-.989 16.125-5.831 14.82-10.256 13.517-14.683 11.629-18.507 9.159-21.728 6.688-24.95 3.616-27.459-.06-29.257-3.735-31.055-7.965-31.954-12.746-31.954-16.383-31.954-19.634-31.035-22.499-29.198-25.364-27.36-27.607-25.039-29.228-22.232V-51.103H-34.326C-35.788-51.103-37.211-50.846-38.594-50.333-39.979-49.818-41.193-49.067-42.24-48.08-43.288-47.091-44.138-45.916-44.789-44.552-45.441-43.188-45.768-41.618-45.768-39.839V-.237C-45.768 5.177-45.136 10.157-43.87 14.702-42.606 19.247-40.64 23.13-37.972 26.352-35.304 29.572-31.905 32.072-27.775 33.851-23.646 35.629-18.715 36.519-12.983 36.519-8.597 36.519-4.586 35.609-.949 33.792 2.687 31.973 5.818 29.572 8.447 26.589 11.075 23.604 13.121 20.166 14.583 16.273 16.045 12.38 16.777 8.378 16.777 4.268" fill="#0d535c"/>
<path transform="matrix(1,0,0,-1,359.4287,200.0337)" d="M0 0C0 7.786-1.275 13.417-3.824 16.896-6.373 20.373-10.277 22.113-15.533 22.113-20.078 22.113-23.536 20.354-25.907 16.836-28.279 13.318-29.465 8.714-29.465 3.023-29.465-3.538-27.992-8.596-25.048-12.153-22.104-15.71-18.2-17.489-13.339-17.489-9.388-17.489-6.176-15.888-3.706-12.687-1.236-9.486 0-5.257 0 0M16.777 4.268C16.777-.989 16.125-5.831 14.82-10.256 13.517-14.683 11.629-18.507 9.159-21.728 6.688-24.95 3.616-27.459-.06-29.257-3.735-31.055-7.965-31.954-12.746-31.954-16.383-31.954-19.634-31.035-22.499-29.198-25.364-27.36-27.607-25.039-29.228-22.232V-51.103H-34.326C-35.788-51.103-37.211-50.846-38.594-50.333-39.979-49.818-41.193-49.067-42.24-48.08-43.288-47.091-44.138-45.916-44.789-44.552-45.441-43.188-45.768-41.618-45.768-39.839V-.237C-45.768 5.177-45.136 10.157-43.87 14.702-42.606 19.247-40.64 23.13-37.972 26.352-35.304 29.572-31.905 32.072-27.775 33.851-23.646 35.629-18.715 36.519-12.983 36.519-8.597 36.519-4.586 35.609-.949 33.792 2.687 31.973 5.818 29.572 8.447 26.589 11.075 23.604 13.121 20.166 14.583 16.273 16.045 12.38 16.777 8.378 16.777 4.268" fill="#0d535c"/>
<path transform="matrix(1,0,0,-1,426.4189,216.3965)" d="M0 0C-3.082-7.232-5.839-13.131-8.27-17.696-10.7-22.261-13.063-25.837-15.354-28.426-17.646-31.015-19.988-32.813-22.379-33.821-24.771-34.829-27.429-35.333-30.353-35.333-33.436-35.333-36.113-34.423-38.386-32.606-40.659-30.788-41.795-28.337-41.795-25.255V-22.113L-32.547-21.52C-31.085-21.44-29.83-21.194-28.782-20.779-27.735-20.364-26.787-19.712-25.937-18.822-25.087-17.933-24.276-16.748-23.506-15.266-22.735-13.783-21.896-11.856-20.986-9.485-23.2-6.245-25.542-1.977-28.012 3.32-30.481 8.616-32.823 14.199-35.036 20.068-37.25 25.937-39.187 31.667-40.847 37.26-42.506 42.853-43.633 47.585-44.226 51.458H-35.57C-33.317 51.458-31.282 50.767-29.464 49.384-27.646 48-26.52 46.143-26.085 43.811-24.979 37.487-23.269 31.065-20.956 24.544-18.645 18.022-15.987 11.857-12.982 6.047-11.679 9.13-10.345 12.588-8.981 16.422-7.617 20.255-6.343 24.218-5.157 28.308-3.972 32.399-2.954 36.45-2.104 40.461-1.255 44.473-.632 48.139-.236 51.458H6.818C9.387 51.458 11.304 50.845 12.568 49.621 13.833 48.396 14.466 46.458 14.466 43.811 14.466 42.664 14.179 40.936 13.606 38.624 13.032 36.312 12.302 33.742 11.412 30.917 10.523 28.091 9.516 25.097 8.389 21.935 7.263 18.773 6.166 15.76 5.099 12.895 4.031 10.028 3.033 7.44 2.104 5.128 1.176 2.816 .475 1.106 0 0" fill="#0d535c"/>
<path transform="matrix(1,0,0,-1,636.0127,188.355)" d="M0 0C-1.067-3.241-2.184-6.542-3.35-9.9-4.516-13.26-5.85-16.699-7.351-20.216-8.854-23.734-10.533-27.359-12.391-31.094-14.248-34.829-16.362-38.752-18.733-42.862H-22.705C-23.22-42.862-23.772-42.822-24.365-42.744-24.958-42.664-25.621-42.467-26.352-42.151-27.083-41.835-27.814-41.312-28.545-40.58-29.276-39.849-30.018-38.871-30.769-37.646-32.271-34.998-33.792-31.935-35.333-28.456-36.874-24.979-38.377-21.234-39.839-17.222-41.301-13.211-42.685-9.041-43.988-4.713-45.293-.385-46.419 4.011-47.368 8.478-49.384-.573-52.031-9.595-55.312-18.585-58.593-27.577-62.426-35.669-66.813-42.862H-70.666C-71.181-42.862-71.754-42.822-72.386-42.744-73.019-42.664-73.72-42.467-74.49-42.151-75.261-41.835-76.031-41.312-76.802-40.58-77.573-39.849-78.334-38.871-79.085-37.646-82.129-32.231-84.993-26.342-87.681-19.979-90.369-13.616-92.8-7.035-94.973-.237-97.146 6.56-99.024 13.458-100.604 20.453-102.186 27.448-103.391 34.305-104.221 41.024H-94.617C-93.155 41.024-91.86 40.737-90.733 40.165-89.607 39.591-88.62 38.84-87.77 37.912-86.92 36.983-86.229 35.956-85.694 34.829-85.161 33.703-84.815 32.606-84.657 31.539-83.512 24.425-81.911 16.945-79.855 9.1-77.801 1.254-74.816-7.332-70.903-16.659-69.046-12.193-67.268-7.391-65.567-2.253-63.869 2.885-62.337 7.924-60.974 12.865-59.609 17.805-58.415 22.458-57.387 26.826-56.359 31.192-55.569 34.878-55.016 37.882H-49.562C-48.178 37.882-46.805 37.714-45.441 37.378-44.077 37.042-42.803 36.449-41.617 35.6-40.432 34.75-39.394 33.623-38.505 32.221-37.615 30.817-36.974 29.009-36.578 26.796-35.195 19.761-33.406 12.726-31.213 5.691-29.02-1.344-26.224-8.794-22.824-16.659-19.347-8.162-16.234 1.067-13.487 11.027-10.74 20.986-8.676 30.946-7.292 40.906H1.305C3.24 40.906 4.94 40.233 6.403 38.89 7.864 37.546 8.597 35.63 8.597 33.14 8.597 31.993 8.271 30.047 7.618 27.3 6.966 24.553 6.195 21.52 5.306 18.2 4.417 14.88 3.487 11.561 2.52 8.24 1.551 4.92 .712 2.173 0 0" fill="#0d535c"/>
<path transform="matrix(1,0,0,-1,689.665,201.9902)" d="M0 0H-5.81C-8.893 0-11.462-.178-13.517-.534-15.572-.889-17.213-1.414-18.437-2.104-19.663-2.796-20.513-3.667-20.986-4.713-21.461-5.761-21.698-6.936-21.698-8.241-21.698-10.849-20.73-12.855-18.793-14.258-16.857-15.661-14.07-16.362-10.434-16.362-3.479-16.362 0-13.003 0-6.284ZM15.888-6.166C15.888-9.644 15.285-12.826 14.08-15.71 12.874-18.596 11.175-21.066 8.981-23.121 6.788-25.176 4.18-26.767 1.156-27.893-1.867-29.02-5.197-29.583-8.833-29.583H-12.153C-16.027-29.583-19.584-29.059-22.824-28.012-26.065-26.965-28.842-25.532-31.153-23.714-33.466-21.896-35.244-19.712-36.489-17.163-37.734-14.614-38.356-11.837-38.356-8.833-38.356-5.909-37.794-3.201-36.667-.711-35.541 1.778-33.703 3.942-31.153 5.78-28.604 7.618-25.246 9.06-21.075 10.108-16.906 11.155-11.818 11.679-5.81 11.679H-.118V12.509C-.118 17.133-1.255 20.294-3.527 21.994-5.801 23.693-9.348 24.543-14.169 24.543-17.094 24.543-19.712 24.296-22.024 23.802-24.336 23.308-26.343 22.676-28.041 21.905-29.741 21.135-31.174 20.305-32.34 19.416-33.506 18.526-34.385 17.726-34.978 17.015H-35.57V22.231C-35.57 24.01-35.146 25.848-34.296 27.745-33.446 29.642-32.072 31.38-30.176 32.962-28.278 34.542-25.809 35.817-22.765 36.786-19.722 37.753-16.066 38.238-11.798 38.238-8.122 38.238-4.624 37.773-1.305 36.845 2.016 35.916 4.95 34.325 7.499 32.073 10.049 29.82 12.084 26.806 13.605 23.032 15.127 19.257 15.888 14.544 15.888 8.893Z" fill="#0d535c"/>
<path transform="matrix(1,0,0,-1,756.0029,216.3965)" d="M0 0C-3.082-7.232-5.839-13.131-8.27-17.696-10.7-22.261-13.063-25.837-15.354-28.426-17.646-31.015-19.988-32.813-22.379-33.821-24.771-34.829-27.429-35.333-30.353-35.333-33.436-35.333-36.113-34.423-38.386-32.606-40.659-30.788-41.795-28.337-41.795-25.255V-22.113L-32.547-21.52C-31.085-21.44-29.83-21.194-28.782-20.779-27.735-20.364-26.787-19.712-25.937-18.822-25.087-17.933-24.276-16.748-23.506-15.266-22.735-13.783-21.896-11.856-20.986-9.485-23.2-6.245-25.542-1.977-28.012 3.32-30.481 8.616-32.823 14.199-35.036 20.068-37.25 25.937-39.187 31.667-40.847 37.26-42.506 42.853-43.633 47.585-44.226 51.458H-35.57C-33.317 51.458-31.282 50.767-29.464 49.384-27.646 48-26.52 46.143-26.085 43.811-24.979 37.487-23.269 31.065-20.956 24.544-18.645 18.022-15.987 11.857-12.982 6.047-11.679 9.13-10.345 12.588-8.981 16.422-7.617 20.255-6.343 24.218-5.157 28.308-3.972 32.399-2.954 36.45-2.104 40.461-1.255 44.473-.632 48.139-.236 51.458H6.818C9.387 51.458 11.304 50.845 12.568 49.621 13.833 48.396 14.466 46.458 14.466 43.811 14.466 42.664 14.179 40.936 13.606 38.624 13.032 36.312 12.302 33.742 11.412 30.917 10.523 28.091 9.516 25.097 8.389 21.935 7.263 18.773 6.166 15.76 5.099 12.895 4.031 10.028 3.033 7.44 2.104 5.128 1.176 2.816 .475 1.106 0 0" fill="#0d535c"/>
</g>
</g>
</svg>
